<svg xmlns="http://www.w3.org/2000/svg" xmlns:xlink="http://www.w3.org/1999/xlink" viewBox="0 0 215.69 162.88" xmlns:v="https://vecta.io/nano"><defs><linearGradient id="A" xlink:href="#V"><stop offset="0"/><stop offset="1" stop-opacity="0"/></linearGradient><linearGradient id="B" xlink:href="#V"><stop offset="0" stop-color="#585858"/><stop offset="1" stop-color="#434343"/></linearGradient><linearGradient id="C" xlink:href="#V"><stop offset="0" stop-color="gray"/><stop offset="1" stop-color="#5b5b5b"/></linearGradient><linearGradient id="D" y2="707.61" xlink:href="#C" x2="260.78" y1="707.61" x1="229.53"/><linearGradient id="E" y2="700.68" xlink:href="#A" x2="245.52" y1="686.33" x1="245.52"/><linearGradient id="F" y2="707.11" xlink:href="#B" x2="225.023" y1="707.11" x1="262.783"/><linearGradient id="G" y2="693.88" xlink:href="#A" x2="242.84" y1="690.18" x1="242.84"/><linearGradient id="H" y2="640.86" x2="277.53" y1="614.86" x1="205.28" xlink:href="#V"><stop offset="0" stop-color="#959595" stop-opacity=".306"/><stop offset="1" stop-color="#3d3d3d" stop-opacity=".536"/></linearGradient><linearGradient id="I" y2="652.84" x2="251.03" y1="685.29" x1="251.03" xlink:href="#V"><stop offset="0" stop-color="#b9b9b9"/><stop offset="1" stop-color="#cecece" stop-opacity="0"/></linearGradient><linearGradient id="J" y2="650.59" x2="250.53" y1="685.29" x1="251.03" xlink:href="#V"><stop offset="0" stop-color="#e9e337"/><stop offset="1" stop-color="#f9fca2" stop-opacity="0"/></linearGradient><linearGradient xlink:href="#C" id="K" x1="229.53" y1="707.61" x2="260.78" y2="707.61"/><linearGradient xlink:href="#A" id="L" x1="245.52" y1="686.33" x2="245.52" y2="700.68"/><linearGradient xlink:href="#B" id="M" x1="262.783" y1="707.11" x2="225.023" y2="707.11"/><linearGradient xlink:href="#A" id="N" x1="242.84" y1="690.18" x2="242.84" y2="693.88"/><linearGradient id="O" x1="205.28" y1="614.86" x2="277.53" y2="640.86" xlink:href="#V"><stop offset="0" stop-color="#fefef9" stop-opacity=".314"/><stop offset="1" stop-color="#3d3d3d" stop-opacity=".536"/></linearGradient><path id="P" d="M227.55 687.36h33.75v31.25h-33.75z"/><path id="Q" d="M225.53 695.84v2.438l17.75-2.437h-17.75zm37.75.25l-37.75 5.188v2.063l37.75-5.187v-2.062zm0 5.063l-37.75 5.188v2.063l37.75-5.187v-2.062zm0 5.063l-37.75 5.188v2.031l37.75-5.187v-2.031zm0 5.031l-37.75 5.188v2.063l37.75-5.187v-2.062z"/><path id="R" d="m225.17 688.22v5.25c0 1.385 1.115 2.5 2.5 2.5h33.5c1.385 0 2.5-1.115 2.5-2.5v-5.25z"/><path id="S" d="M244.42 581.09c-24.493 0-44.344 19.851-44.344 44.344 0 11.167 4.125 21.359 10.938 29.156 3.878 4.052 6.6 9.923 7.469 16.656l.019 12.429c0 4.453 3.576 8.028 8.028 8.028h35.78c4.453 0 8.028-3.576 8.028-8.028l-.012-12.429c.865-6.72 3.61-12.574 7.469-16.625.003-.01-.002-.021 0-.031 6.816-7.798 10.969-17.986 10.969-29.156 0-24.493-19.851-44.344-44.344-44.344z"/><path id="T" d="M231.77 723.34c0 1.037.521 2.075 1.564 2.87l7.305 5.568c2.086 1.59 5.444 1.59 7.53 0l7.305-5.568c1.043-.795 1.564-1.832 1.564-2.87z"/><path id="U" d="M231.38 591.37c-13.547 6.747-22.938 20.62-22.938 36.812 0 .607.128 1.33.188 1.969l11.938-2.031a34.58 34.58 0 0 1 17.25-25.906l-6.437-10.844z"/><linearGradient id="V" gradientUnits="userSpaceOnUse"/></defs><g transform="translate(-200.08 -570.09)"><g transform="translate(8.501 -5.5)"><path d="M227.55 687.36h33.75v31.25h-33.75z" fill="url(#D)"/><use xlink:href="#P" fill="url(#E)"/><use xlink:href="#Q" fill="url(#F)"/><path d="m225.17 688.22v5.25c0 1.385 1.115 2.5 2.5 2.5h33.5c1.385 0 2.5-1.115 2.5-2.5v-5.25z" fill="url(#D)"/><use xlink:href="#R" fill="url(#G)"/><use xlink:href="#S" opacity=".683" fill="url(#H)"/><path d="m227.53 718.59 4.25 4.75h25.25l4.25-4.75z" fill="gray"/><use xlink:href="#T" fill="#343434"/><use xlink:href="#S" fill="url(#I)"/><use xlink:href="#U" fill="#fff"/></g><g transform="translate(151.5 -5.5)"><use xlink:href="#S" x="-33" opacity=".683" fill="#f9ff00"/><use xlink:href="#P" x="-33" fill="url(#K)"/><use xlink:href="#P" x="-33" fill="url(#L)"/><use xlink:href="#Q" x="-33" fill="url(#M)"/><use xlink:href="#R" x="-33" fill="url(#K)"/><use xlink:href="#R" x="-33" fill="url(#N)"/><use xlink:href="#S" x="-33" opacity=".282" fill="url(#O)"/><path d="M194.53 718.59l4.25 4.75h25.25l4.25-4.75z" fill="gray"/><use xlink:href="#T" x="-33" fill="#343434"/><use xlink:href="#S" x="-33" fill="url(#J)"/><use xlink:href="#U" x="-33" fill="#fff"/></g></g></svg>